<?xml version="1.0" encoding="UTF-8" standalone="no"?>
<!DOCTYPE svg PUBLIC "-//W3C//DTD SVG 1.1//EN" "http://www.w3.org/Graphics/SVG/1.1/DTD/svg11.dtd">
<svg version="1.1" xmlns="http://www.w3.org/2000/svg" xmlns:xlink="http://www.w3.org/1999/xlink" preserveAspectRatio="xMidYMid meet" viewBox="239 268.99999999999994 184 104.00000000000006" width="180" height="100"><defs><path d="M413.41 309.34C417.05 309.34 420 312.3 420 315.94C420 318.88 420 321.12 420 324.06C420 327.7 417.05 330.66 413.41 330.66C378.72 330.66 281.28 330.66 246.59 330.66C242.95 330.66 240 327.7 240 324.06C240 321.12 240 318.88 240 315.94C240 312.3 242.95 309.34 246.59 309.34C281.28 309.34 378.72 309.34 413.41 309.34Z" id="gc29Y2yYc"></path><linearGradient id="gradientaJZGUROgJ" gradientUnits="userSpaceOnUse" x1="260" y1="300" x2="400" y2="340"><stop style="stop-color: #0000ff;stop-opacity: 1" offset="0%"></stop><stop style="stop-color: #000000;stop-opacity: 1" offset="50%"></stop><stop style="stop-color: #ff0000;stop-opacity: 1" offset="100%"></stop></linearGradient><path d="M345 285C345 293.28 338.28 300 330 300C321.72 300 315 293.28 315 285C315 276.72 321.72 270 330 270C338.28 270 345 276.72 345 285Z" id="a4QxbPWMZ"></path><path d="M345 355C345 363.28 338.28 370 330 370C321.72 370 315 363.28 315 355C315 346.72 321.72 340 330 340C338.28 340 345 346.72 345 355Z" id="a13kyJDu7F"></path></defs><g><g><use xlink:href="#gc29Y2yYc" opacity="1" fill="url(#gradientaJZGUROgJ)"></use></g><g><use xlink:href="#a4QxbPWMZ" opacity="1" fill="#000000" fill-opacity="1"></use></g><g><use xlink:href="#a13kyJDu7F" opacity="1" fill="#000000" fill-opacity="1"></use></g></g></svg>